<svg width="25" height="28" viewBox="0 0 25 28" fill="none" xmlns="http://www.w3.org/2000/svg">
<g clip-path="url(#clip0_12_36)">
<path d="M18.5274 10.082C20.3514 11.3705 22.5859 12.1286 24.9993 12.1286V7.53952C24.5425 7.53961 24.087 7.4925 23.6401 7.39894V11.0112C21.227 11.0112 18.9927 10.2532 17.1683 8.96481V18.3299C17.1683 23.0149 13.3249 26.8125 8.58428 26.8125C6.81544 26.8125 5.1713 26.2841 3.80557 25.3777C5.36436 26.9528 7.53819 27.9298 9.94307 27.9298C14.6841 27.9298 18.5275 24.1322 18.5275 19.447V10.082H18.5274ZM20.2041 5.45217C19.2719 4.44581 18.6598 3.14526 18.5274 1.70741V1.11719H17.2394C17.5636 2.94462 18.6695 4.50586 20.2041 5.45217ZM6.80401 21.7827C6.2832 21.108 6.00167 20.2824 6.00294 19.4336C6.00294 17.291 7.76085 15.5536 9.92969 15.5536C10.3338 15.5534 10.7356 15.6147 11.1208 15.7354V11.0437C10.6706 10.9827 10.2163 10.9568 9.76221 10.9663V14.6181C9.37679 14.4973 8.97483 14.436 8.57051 14.4364C6.40176 14.4364 4.64395 16.1736 4.64395 18.3165C4.64395 19.8318 5.52256 21.1437 6.80401 21.7827Z" fill="#FF004F"/>
<path d="M17.1683 8.96472C18.9928 10.2531 21.2269 11.0111 23.6401 11.0111V7.39884C22.2931 7.11527 21.1006 6.41971 20.204 5.45217C18.6693 4.50577 17.5636 2.94453 17.2394 1.11719H13.8563V19.4469C13.8485 21.5837 12.0937 23.3139 9.92949 23.3139C8.6543 23.3139 7.52129 22.7133 6.80381 21.7826C5.52256 21.1437 4.64385 19.8317 4.64385 18.3166C4.64385 16.1738 6.40166 14.4365 8.57041 14.4365C8.98594 14.4365 9.38643 14.5004 9.76211 14.6182V10.9664C5.10469 11.0615 1.35909 14.822 1.35909 19.447C1.35909 21.7557 2.2918 23.8486 3.80567 25.3779C5.17139 26.2841 6.81543 26.8127 8.58438 26.8127C13.3251 26.8127 17.1684 23.0148 17.1684 18.3299V8.96481L17.1683 8.96472Z" fill="black"/>
<path d="M23.6401 7.39876V6.42223C22.4254 6.42405 21.2346 6.08789 20.204 5.45218C21.1163 6.43914 22.3176 7.11975 23.6401 7.39895V7.39876ZM17.2393 1.1171C17.2084 0.9425 17.1846 0.766728 17.1682 0.590221V0H12.4969V18.3299C12.4895 20.4666 10.7346 22.1968 8.57031 22.1968C7.95676 22.1977 7.3516 22.0559 6.80371 21.7828C7.52119 22.7133 8.6542 23.3139 9.92939 23.3139C12.0935 23.3139 13.8485 21.5838 13.8562 19.447V1.1172H17.2393V1.1171ZM9.76231 10.9663V9.92658C9.37197 9.87383 8.97844 9.84744 8.58447 9.8476C3.84326 9.8476 0 13.6454 0 18.3299C0 21.2669 1.51045 23.8552 3.80576 25.3778C2.29189 23.8486 1.35918 21.7555 1.35918 19.4469C1.35918 14.822 5.10469 11.0614 9.76231 10.9663Z" fill="#00F2EA"/>
</g>
<defs>
<clipPath id="clip0_12_36">
<rect width="25" height="28" fill="white"/>
</clipPath>
</defs>
</svg>
