<svg width="33" height="33" viewBox="0 0 33 33" fill="none" xmlns="http://www.w3.org/2000/svg">
<g clip-path="url(#clip0_12_40)">
<path d="M29.2756 10.0402C29.1249 9.47285 28.8278 8.955 28.414 8.53857C28.0003 8.12213 27.4843 7.82173 26.9179 7.66745C24.8385 7.10645 16.5 7.10645 16.5 7.10645C16.5 7.10645 8.16154 7.10645 6.08208 7.66745C5.51567 7.82173 4.99973 8.12213 4.58595 8.53857C4.17218 8.955 3.87508 9.47285 3.72442 10.0402C3.16708 12.133 3.16708 16.5 3.16708 16.5C3.16708 16.5 3.16708 20.867 3.72442 22.9602C3.87508 23.5276 4.17218 24.0454 4.58595 24.4619C4.99973 24.8783 5.51567 25.1787 6.08208 25.333C8.16154 25.8935 16.5 25.8935 16.5 25.8935C16.5 25.8935 24.8385 25.8935 26.9179 25.333C27.4843 25.1787 28.0003 24.8783 28.414 24.4619C28.8278 24.0454 29.1249 23.5276 29.2756 22.9602C29.8329 20.867 29.8329 16.5 29.8329 16.5C29.8329 16.5 29.8329 12.133 29.2756 10.0402Z" fill="#EA5A47"/>
<path d="M13.7729 20.4646L20.7423 16.5L13.7729 12.5354V20.4646Z" fill="white"/>
<path d="M29.2094 8.15736C29.0408 7.52258 28.7085 6.94323 28.2455 6.47734C27.7826 6.01144 27.2054 5.67536 26.5717 5.50275C24.2453 4.87512 14.9165 4.87512 14.9165 4.87512C14.9165 4.87512 5.58765 4.87512 3.26121 5.50275C2.62752 5.67536 2.05031 6.01144 1.58739 6.47734C1.12447 6.94323 0.792082 7.52258 0.623528 8.15736C3.05634e-07 10.4987 0 15.3843 0 15.3843C0 15.3843 3.05634e-07 20.27 0.623528 22.6118C0.792082 23.2466 1.12447 23.8259 1.58739 24.2918C2.05031 24.7577 2.62752 25.0938 3.26121 25.2664C5.58765 25.8935 14.9165 25.8935 14.9165 25.8935C14.9165 25.8935 24.2453 25.8935 26.5717 25.2664C27.2054 25.0938 27.7826 24.7577 28.2455 24.2918C28.7085 23.8259 29.0408 23.2466 29.2094 22.6118C29.8329 20.27 29.8329 15.3843 29.8329 15.3843C29.8329 15.3843 29.8329 10.4987 29.2094 8.15736Z" stroke="black" stroke-width="2" stroke-miterlimit="10"/>
<path d="M11.8655 19.8198L19.6627 15.3843L11.8655 10.9489V19.8198Z" stroke="black" stroke-width="2" stroke-miterlimit="10" stroke-linecap="round" stroke-linejoin="round"/>
</g>
<defs>
<clipPath id="clip0_12_40">
<rect width="33" height="33" fill="white"/>
</clipPath>
</defs>
</svg>
