<svg width="30" height="32" viewBox="0 0 30 32" fill="none" xmlns="http://www.w3.org/2000/svg">
<path d="M21.9062 2H8.09375C4.72826 2 2 4.72826 2 8.09375V21.9062C2 25.2717 4.72826 28 8.09375 28H21.9062C25.2717 28 28 25.2717 28 21.9062V8.09375C28 4.72826 25.2717 2 21.9062 2Z" fill="url(#paint0_radial_12_31)"/>
<path d="M21.9062 2H8.09375C4.72826 2 2 4.72826 2 8.09375V21.9062C2 25.2717 4.72826 28 8.09375 28H21.9062C25.2717 28 28 25.2717 28 21.9062V8.09375C28 4.72826 25.2717 2 21.9062 2Z" fill="url(#paint1_radial_12_31)"/>
<path d="M15.0009 4.84375C12.2427 4.84375 11.8965 4.85584 10.8132 4.90509C9.73195 4.95466 8.9939 5.12579 8.34816 5.37695C7.68009 5.63634 7.11347 5.98338 6.54898 6.54807C5.98399 7.11266 5.63695 7.67927 5.37675 8.34705C5.12488 8.99298 4.95354 9.73134 4.90489 10.8121C4.85645 11.8954 4.84375 12.2418 4.84375 15.0001C4.84375 17.7584 4.85594 18.1035 4.90509 19.1868C4.95486 20.268 5.12599 21.0061 5.37695 21.6518C5.63655 22.3199 5.98359 22.8865 6.54827 23.451C7.11266 24.016 7.67927 24.3639 8.34684 24.6232C8.99309 24.8744 9.73124 25.0455 10.8123 25.0951C11.8956 25.1444 12.2416 25.1565 14.9997 25.1565C17.7582 25.1565 18.1033 25.1444 19.1866 25.0951C20.2678 25.0455 21.0067 24.8744 21.653 24.6232C22.3207 24.3639 22.8865 24.016 23.4508 23.451C24.0158 22.8865 24.3627 22.3199 24.623 21.6521C24.8727 21.0061 25.0441 20.2678 25.0949 19.187C25.1436 18.1037 25.1562 17.7584 25.1562 15.0001C25.1562 12.2418 25.1436 11.8956 25.0949 10.8123C25.0441 9.73104 24.8727 8.99309 24.623 8.34735C24.3627 7.67927 24.0158 7.11266 23.4508 6.54807C22.8859 5.98318 22.3209 5.63614 21.6523 5.37705C21.0049 5.12579 20.2664 4.95455 19.1852 4.90509C18.1018 4.85584 17.7569 4.84375 14.9978 4.84375H15.0009ZM14.0898 6.67401C14.3603 6.6736 14.662 6.67401 15.0009 6.67401C17.7127 6.67401 18.0341 6.68376 19.105 6.73241C20.0952 6.7777 20.6327 6.94315 20.9907 7.08219C21.4647 7.26622 21.8026 7.4863 22.1578 7.84187C22.5133 8.19734 22.7333 8.53585 22.9178 9.00984C23.0569 9.36734 23.2225 9.90481 23.2676 10.895C23.3162 11.9657 23.3268 12.2873 23.3268 14.9978C23.3268 17.7083 23.3162 18.0299 23.2676 19.1005C23.2223 20.0907 23.0569 20.6282 22.9178 20.9858C22.7338 21.4598 22.5133 21.7973 22.1578 22.1525C21.8024 22.508 21.4649 22.728 20.9907 22.9121C20.6331 23.0518 20.0952 23.2168 19.105 23.2621C18.0343 23.3108 17.7127 23.3213 15.0009 23.3213C12.289 23.3213 11.9675 23.3108 10.897 23.2621C9.90674 23.2164 9.36927 23.051 9.01096 22.9119C8.53707 22.7278 8.19846 22.5078 7.84299 22.1523C7.48752 21.7969 7.26754 21.4592 7.083 20.985C6.94396 20.6274 6.77831 20.0899 6.73322 19.0997C6.68457 18.029 6.67482 17.7075 6.67482 14.9952C6.67482 12.2831 6.68457 11.9632 6.73322 10.8925C6.77852 9.90227 6.94396 9.3648 7.083 9.0068C7.26713 8.5328 7.48752 8.1943 7.84309 7.83883C8.19856 7.48336 8.53707 7.26327 9.01106 7.07884C9.36907 6.93919 9.90674 6.77415 10.897 6.72865C11.8339 6.6863 12.197 6.6736 14.0898 6.67147V6.67401ZM20.4223 8.36035C19.7495 8.36035 19.2036 8.90574 19.2036 9.5787C19.2036 10.2515 19.7495 10.7974 20.4223 10.7974C21.0952 10.7974 21.6411 10.2515 21.6411 9.5787C21.6411 8.90584 21.0952 8.35994 20.4223 8.35994V8.36035ZM15.0009 9.78436C12.1206 9.78436 9.78527 12.1197 9.78527 15.0001C9.78527 17.8805 12.1206 20.2147 15.0009 20.2147C17.8813 20.2147 20.2158 17.8805 20.2158 15.0001C20.2158 12.1198 17.8811 9.78436 15.0007 9.78436H15.0009ZM15.0009 11.6146C16.8706 11.6146 18.3864 13.1302 18.3864 15.0001C18.3864 16.8698 16.8706 18.3856 15.0009 18.3856C13.1311 18.3856 11.6155 16.8698 11.6155 15.0001C11.6155 13.1302 13.1311 11.6146 15.0009 11.6146Z" fill="white"/>
<defs>
<radialGradient id="paint0_radial_12_31" cx="0" cy="0" r="1" gradientUnits="userSpaceOnUse" gradientTransform="translate(8.90625 30.0025) rotate(-90) scale(25.7679 23.9662)">
<stop stop-color="#FFDD55"/>
<stop offset="0.1" stop-color="#FFDD55"/>
<stop offset="0.5" stop-color="#FF543E"/>
<stop offset="1" stop-color="#C837AB"/>
</radialGradient>
<radialGradient id="paint1_radial_12_31" cx="0" cy="0" r="1" gradientUnits="userSpaceOnUse" gradientTransform="translate(-2.3551 3.87291) rotate(78.681) scale(11.5184 47.4792)">
<stop stop-color="#3771C8"/>
<stop offset="0.128" stop-color="#3771C8"/>
<stop offset="1" stop-color="#6600FF" stop-opacity="0"/>
</radialGradient>
</defs>
</svg>
